<svg xmlns="http://www.w3.org/2000/svg" width="137.76" height="28" viewBox="0 0 137.76 28"><defs><style>.a{fill:#6d7570;}.b{fill:#f06364;}.c{fill:none;}.d{fill:#aeb5b2;}</style></defs><g transform="translate(36.96 7.146)"><path class="a" d="M980.1,137.369a1.09,1.09,0,0,1-1.1-1.044,1.15,1.15,0,0,1,.313-.76,21.834,21.834,0,0,0,2.566-3.729.544.544,0,0,1,.492-.283.689.689,0,0,1,.7.641,15.279,15.279,0,0,1-1.88,4.5A1.277,1.277,0,0,1,980.1,137.369ZM987,130.15v6.384c0,1.506-.522,2.386-2.283,2.386a5.219,5.219,0,0,1-2.223-.507.7.7,0,0,1-.477-.641.615.615,0,0,1,.6-.627c.03,0,.074.015.1.015a6.292,6.292,0,0,0,1.358.223c.507,0,1-.119,1-1V130.15h-5.056a.634.634,0,0,1-.656-.656.609.609,0,0,1,.642-.641h5.071v-1.835a.907.907,0,0,1,.955-.925.919.919,0,0,1,.97.925v1.835h4.683a.629.629,0,0,1,.641.656.614.614,0,0,1-.671.627Zm3.371,6.2a20.977,20.977,0,0,0-1.775-4.012.615.615,0,0,1-.09-.3.56.56,0,0,1,.612-.507.874.874,0,0,1,.6.253c.91.9,2.7,3.073,2.7,4.177a1.152,1.152,0,0,1-1.1,1.193A.985.985,0,0,1,990.366,136.355Z" transform="translate(-979 -125.347)"/><path class="a" d="M1006.364,137.555a.69.69,0,0,1-.693-.731.677.677,0,0,1,.693-.716h9.546a.673.673,0,0,1,.692.7.7.7,0,0,1-.692.746Z" transform="translate(-990.735 -129.754)"/><path class="a" d="M1029.686,137.238a54.8,54.8,0,0,0,2.909-8.875,1.038,1.038,0,0,1,1.059-.805,1.164,1.164,0,0,1,1.238,1.029c0,.388-1.149,3.624-3.7,8.516,2.4-.238,4.489-.462,6.428-.745-.507-1.1-1.089-2.133-1.715-3.252a.72.72,0,0,1-.09-.313.6.6,0,0,1,.627-.567.611.611,0,0,1,.492.224c.417.477,3.893,4.459,3.893,6.041a1.148,1.148,0,0,1-1.119,1.208,1.3,1.3,0,0,1-1.178-1.014c-.135-.4-.268-.79-.418-1.163-3.729.94-9.263,1.8-9.427,1.8a1.1,1.1,0,0,1-1.178-1.044c0-.447.327-.88,1.074-.94Z" transform="translate(-1000.343 -125.992)"/><path class="a" d="M1064.162,129.7c-.045,3.968-2.133,8.054-7.771,9.054a.68.68,0,0,1-.163.015.625.625,0,0,1-.657-.611.511.511,0,0,1,.463-.522c4.236-.895,5.817-4.624,5.877-7.935H1058.3c-1.268,2.416-3.043,4.012-3.625,4.012a.509.509,0,0,1-.507-.537.735.735,0,0,1,.193-.478,13.661,13.661,0,0,0,2.789-6.16.985.985,0,0,1,1.044-.79,1.108,1.108,0,0,1,1.193,1.029,6.448,6.448,0,0,1-.492,1.671h8.338a.634.634,0,0,1,.671.641.591.591,0,0,1-.627.612Z" transform="translate(-1012.074 -125.195)"/><path class="a" d="M1081.838,128.7a.673.673,0,0,1-.716-.686.64.64,0,0,1,.716-.642h10.2c1.074,0,1.746.522,1.746,1.417a2.255,2.255,0,0,1-.12.731c-1,2.968-3.864,4.714-4.8,4.714a.655.655,0,0,1-.656-.612.573.573,0,0,1,.343-.522,6.091,6.091,0,0,0,2.774-4.012c0-.253-.164-.388-.432-.388Zm5.862,2.252c0,2.983-.492,6.623-5.444,8.532a1.245,1.245,0,0,1-.373.075.627.627,0,0,1-.656-.627.553.553,0,0,1,.344-.522c3.341-1.566,3.938-4.3,3.938-6.936,0-.3,0-.582-.016-.865v-.044a.95.95,0,0,1,1.029-.955,1.1,1.1,0,0,1,1.178,1.044Z" transform="translate(-1023.933 -125.909)"/><path class="b" d="M1122.757,131.418c-.179-.015-3.013-.09-3.654-.09h-1.283c-.015,4.594-2.968,6.8-6.861,7.786h-.045c-.239,0-.462-.462-.462-.686a.09.09,0,0,1,.045-.09c3.058-1.119,5.011-2.938,5.146-7.011h-2.208c-.224,0-3.431.075-3.595.09h-.045c-.09,0-.119-.045-.119-.1a.544.544,0,0,1,.03-.164.86.86,0,0,0,.03-.283,1.053,1.053,0,0,0-.03-.314,1.889,1.889,0,0,1-.06-.239c0-.059.016-.09.09-.09a.289.289,0,0,1,.1.015c.164.03,2.923.119,3.595.119h2.223c-.015-.82-.045-2.192-.045-3.073,0-.313,0-.567.015-.716,0-.06.03-.1.149-.1a.662.662,0,0,1,.164.015,1.585,1.585,0,0,0,.4.03,5.029,5.029,0,0,0,1.134-.134.9.9,0,0,1,.253-.045c.1,0,.149.06.149.224v.1c-.044.522-.059,2.446-.059,3.7h1.432c.925,0,3.4-.1,3.52-.134h.045c.06,0,.075.03.075.09a1.531,1.531,0,0,1-.045.224,1.727,1.727,0,0,0-.03.313,1.325,1.325,0,0,0,.03.254,1.355,1.355,0,0,1,.045.209c0,.059-.015.1-.1.1Z" transform="translate(-1036.484 -125.452)"/><path class="b" d="M1147.518,137.335c0,.179-.061.194-.135.209a32.54,32.54,0,0,1-4.042.209c-3.386,0-6-.15-6-3.252,0-1.089.045-4.878.045-7.279v-.836c0-.149.03-.194.3-.194h.134a5.071,5.071,0,0,0,1.313-.179.423.423,0,0,1,.135-.015c.119,0,.134.074.134.283-.029.984-.074,2.834-.1,4.534a20.379,20.379,0,0,0,6.369-2.8.236.236,0,0,1,.149-.075c.075,0,.164.06.223.254a4.417,4.417,0,0,0,1.1,1.551c.09.1.165.194.165.269s-.06.134-.224.194a58.583,58.583,0,0,1-7.8,1.581c-.015,1.164-.045,2.133-.045,2.551,0,1.328.745,1.686,3.057,1.686a44.062,44.062,0,0,0,5.281-.463c.119,0,.134.045.134.1a.3.3,0,0,1-.015.1,8.084,8.084,0,0,0-.179,1.357Zm-.046-9.74a2.646,2.646,0,0,0-.895.582.3.3,0,0,1-.164.1c-.045,0-.074-.03-.09-.1a9.937,9.937,0,0,0-1.134-2.357.055.055,0,0,1-.015-.045c0-.149.314-.328.492-.328a9.366,9.366,0,0,1,2.014,1.969C1147.682,127.476,1147.623,127.535,1147.473,127.6Zm1.8-.791a2.573,2.573,0,0,0-.85.627.227.227,0,0,1-.164.1.108.108,0,0,1-.09-.09,9,9,0,0,0-1.253-2.3c-.015-.015-.015-.03-.015-.06,0-.134.3-.328.477-.328a8.327,8.327,0,0,1,2.088,1.864C1149.472,126.67,1149.427,126.73,1149.278,126.8Z" transform="translate(-1048.671 -124.761)"/></g><rect class="c" width="28" height="28"/><g transform="translate(0 0.639)"><path class="b" d="M952.144,134.232a2.9,2.9,0,0,0-2.13.893.793.793,0,0,1-1.126,0,2.9,2.9,0,0,0-2.13-.893c-1.98,0-3.218,2.178-2.228,4.306.819,1.762,3.705,4.031,4.677,4.761a.406.406,0,0,0,.488,0c.971-.73,3.857-3,4.677-4.761C955.362,136.41,954.124,134.232,952.144,134.232Z" transform="translate(-926.72 -122.421)"/><path class="d" d="M922.422,138.228V128.185h-5.964l9.8-12.468v-2.576L913,129.82h7.787v10.043h14.944v-1.635Z" transform="translate(-913 -113.141)"/></g></svg>